
<global>
amp_veltrack=0
ampeg_attack=0.01
ampeg_release=5.00
</global>

<group>
group_label=Fall_0-42
xfin_hicc1=42
xfout_hicc1=84
xfout_locc1=42

<region>
hikey=a#3
hivel=127
lokey=g#3
lovel=0
offset=17728
pitch_keycenter=A3
sample=Violins2_fall_PP_A3.opus
</region>

<region>
hikey=a#4
hivel=127
lokey=g#4
lovel=0
offset=13309
pitch_keycenter=A4
sample=Violins2_fall_PP_A4.opus
</region>

<region>
hikey=a#5
hivel=127
lokey=g#5
lovel=0
offset=12550
pitch_keycenter=A5
sample=Violins2_fall_PP_A5.opus
</region>

<region>
hikey=a6
hivel=127
lokey=g#6
lovel=0
offset=11436
pitch_keycenter=a6
sample=Violins2_fall_PP_A6.opus
</region>

<region>
hikey=b6
hivel=127
lokey=a#6
lovel=0
offset=12047
pitch_keycenter=B6
sample=Violins2_fall_PP_B6.opus
</region>

<region>
hivel=127
key=c#4
lovel=0
offset=15996
sample=Violins2_fall_PP_C#4.opus
</region>

<region>
hivel=127
key=c#5
lovel=0
offset=12540
sample=Violins2_fall_PP_C#5.opus
</region>

<region>
hivel=127
key=c#6
lovel=0
offset=15151
sample=Violins2_fall_PP_C#6.opus
</region>

<region>
hikey=c4
hivel=127
lokey=b3
lovel=0
offset=14370
sample=Violins2_fall_PP_C4.opus
</region>

<region>
hikey=c5
hivel=127
lokey=b4
lovel=0
offset=13423
pitch_keycenter=C5
sample=Violins2_fall_PP_C5.opus
</region>

<region>
hikey=c6
hivel=127
lokey=b5
lovel=0
offset=13205
pitch_keycenter=C6
sample=Violins2_fall_PP_C6.opus
</region>

<region>
hikey=E7
hivel=127
lokey=C7
lovel=0
offset=13732
pitch_keycenter=C7
sample=Violins2_fall_PP_C7.opus
</region>

<region>
hikey=d#4
hivel=127
lokey=d4
lovel=0
offset=14411
pitch_keycenter=d#4
sample=Violins2_fall_PP_D#4.opus
</region>

<region>
hikey=d#5
hivel=127
lokey=d5
lovel=0
offset=13356
pitch_keycenter=d#5
sample=Violins2_fall_PP_D#5.opus
</region>

<region>
hikey=d#6
hivel=127
lokey=d6
lovel=0
offset=15794
pitch_keycenter=d#6
sample=Violins2_fall_PP_D#6.opus
</region>

<region>
hikey=f4
hivel=127
lokey=e4
lovel=0
offset=11960
pitch_keycenter=f4
sample=Violins2_fall_PP_F4.opus
</region>

<region>
hikey=f5
hivel=127
lokey=e5
lovel=0
offset=11439
pitch_keycenter=f5
sample=Violins2_fall_PP_F5.opus
</region>

<region>
hikey=f6
hivel=127
lokey=e6
lovel=0
offset=13699
pitch_keycenter=f6
sample=Violins2_fall_PP_F6.opus
</region>

<region>
hivel=127
key=g3
lovel=0
offset=15187
sample=Violins2_fall_PP_G3.opus
</region>

<region>
hikey=g4
hivel=127
lokey=f#4
lovel=0
offset=13296
pitch_keycenter=g4
sample=Violins2_fall_PP_G4.opus
</region>

<region>
hikey=g5
hivel=127
lokey=f#5
lovel=0
offset=13737
pitch_keycenter=g5
sample=Violins2_fall_PP_G5.opus
</region>

<region>
hikey=g6
hivel=127
lokey=f#6
lovel=0
offset=12012
pitch_keycenter=g6
sample=Violins2_fall_PP_G6.opus
</region>
</group>

<group>
group_label=Fall_43-84
xfin_hicc1=84
xfin_locc1=43
xfout_hicc1=125
xfout_locc1=84

<region>
hikey=a#3
hivel=127
lokey=g#3
lovel=0
offset=4365
pitch_keycenter=A3
sample=Violins2_fall_MF_A3.opus
</region>

<region>
hikey=a#4
hivel=127
lokey=g#4
lovel=0
offset=7011
pitch_keycenter=A4
sample=Violins2_fall_MF_A4.opus
</region>

<region>
hikey=a#5
hivel=127
lokey=g#5
lovel=0
offset=2504
pitch_keycenter=A5
sample=Violins2_fall_MF_A5.opus
</region>

<region>
hikey=a6
hivel=127
lokey=g#6
lovel=0
offset=6314
pitch_keycenter=a6
sample=Violins2_fall_MF_A6.opus
</region>

<region>
hikey=b6
hivel=127
lokey=a#6
lovel=0
offset=7706
pitch_keycenter=B6
sample=Violins2_fall_MF_B6.opus
</region>

<region>
hivel=127
key=c#4
lovel=0
offset=2964
sample=Violins2_fall_MF_C#4.opus
</region>

<region>
hivel=127
key=c#5
lovel=0
offset=11675
sample=Violins2_fall_MF_C#5.opus
</region>

<region>
hivel=127
key=c#6
lovel=0
offset=902
sample=Violins2_fall_MF_C#6.opus
</region>

<region>
hikey=c4
hivel=127
lokey=b3
lovel=0
offset=8139
sample=Violins2_fall_MF_C4.opus
</region>

<region>
hikey=c5
hivel=127
lokey=b4
lovel=0
offset=4063
pitch_keycenter=C5
sample=Violins2_fall_MF_C5.opus
</region>

<region>
hikey=c6
hivel=127
lokey=b5
lovel=0
offset=12787
pitch_keycenter=C6
sample=Violins2_fall_MF_C6.opus
</region>

<region>
hikey=E7
hivel=127
lokey=C7
lovel=0
offset=1824
pitch_keycenter=C7
sample=Violins2_fall_MF_C7.opus
</region>

<region>
hikey=d#4
hivel=127
lokey=d4
lovel=0
offset=2318
pitch_keycenter=d#4
sample=Violins2_fall_MF_D#4.opus
</region>

<region>
hikey=d#5
hivel=127
lokey=d5
lovel=0
offset=5646
pitch_keycenter=d#5
sample=Violins2_fall_MF_D#5.opus
</region>

<region>
hikey=d#6
hivel=127
lokey=d6
lovel=0
offset=2644
pitch_keycenter=d#6
sample=Violins2_fall_MF_D#6.opus
</region>

<region>
hikey=f4
hivel=127
lokey=e4
lovel=0
offset=1869
pitch_keycenter=f4
sample=Violins2_fall_MF_F4.opus
</region>

<region>
hikey=f5
hivel=127
lokey=e5
lovel=0
offset=11875
pitch_keycenter=f5
sample=Violins2_fall_MF_F5.opus
</region>

<region>
hikey=f6
hivel=127
lokey=e6
lovel=0
offset=11238
pitch_keycenter=f6
sample=Violins2_fall_MF_F6.opus
</region>

<region>
hivel=127
key=g3
lovel=0
offset=1317
sample=Violins2_fall_MF_G3.opus
</region>

<region>
hikey=g4
hivel=127
lokey=f#4
lovel=0
offset=2179
pitch_keycenter=g4
sample=Violins2_fall_MF_G4.opus
</region>

<region>
hikey=g5
hivel=127
lokey=f#5
lovel=0
offset=2166
pitch_keycenter=g5
sample=Violins2_fall_MF_G5.opus
</region>

<region>
hikey=g6
hivel=127
lokey=f#6
lovel=0
offset=13279
pitch_keycenter=g6
sample=Violins2_fall_MF_G6.opus
</region>
</group>

<group>
group_label=Fall_85-127
xfin_hicc1=127
xfin_locc1=85
xfout_hicc1=127
xfout_locc1=127

<region>
hikey=a#3
hivel=127
lokey=g#3
lovel=0
offset=1739
pitch_keycenter=A3
sample=Violins2_fall_FF_A3.opus
</region>

<region>
hikey=a#4
hivel=127
lokey=g#4
lovel=0
offset=3569
pitch_keycenter=A4
sample=Violins2_fall_FF_A4.opus
</region>

<region>
hikey=a#5
hivel=127
lokey=g#5
lovel=0
offset=1442
pitch_keycenter=A5
sample=Violins2_fall_FF_A5.opus
</region>

<region>
hikey=a6
hivel=127
lokey=g#6
lovel=0
offset=993
pitch_keycenter=a6
sample=Violins2_fall_FF_A6.opus
</region>

<region>
hikey=b6
hivel=127
lokey=a#6
lovel=0
offset=303
pitch_keycenter=B6
sample=Violins2_fall_FF_B6.opus
</region>

<region>
hivel=127
key=c#4
lovel=0
offset=2182
sample=Violins2_fall_FF_C#4.opus
</region>

<region>
hivel=127
key=c#5
lovel=0
offset=3191
sample=Violins2_fall_FF_C#5.opus
</region>

<region>
hivel=127
key=c#6
lovel=0
offset=847
sample=Violins2_fall_FF_C#6.opus
</region>

<region>
hikey=c4
hivel=127
lokey=b3
lovel=0
offset=1133
sample=Violins2_fall_FF_C4.opus
</region>

<region>
hikey=c5
hivel=127
lokey=b4
lovel=0
offset=550
pitch_keycenter=C5
sample=Violins2_fall_FF_C5.opus
</region>

<region>
hikey=c6
hivel=127
lokey=b5
lovel=0
offset=2332
pitch_keycenter=C6
sample=Violins2_fall_FF_C6.opus
</region>

<region>
hikey=E7
hivel=127
lokey=C7
lovel=0
offset=1106
pitch_keycenter=C7
sample=Violins2_fall_FF_C7.opus
</region>

<region>
hikey=d#4
hivel=127
lokey=d4
lovel=0
offset=1760
pitch_keycenter=d#4
sample=Violins2_fall_FF_D#4.opus
</region>

<region>
hikey=d#5
hivel=127
lokey=d5
lovel=0
offset=1693
pitch_keycenter=d#5
sample=Violins2_fall_FF_D#5.opus
</region>

<region>
hikey=d#6
hivel=127
lokey=d6
lovel=0
offset=3425
pitch_keycenter=d#6
sample=Violins2_fall_FF_D#6.opus
</region>

<region>
hikey=f4
hivel=127
lokey=e4
lovel=0
offset=1147
pitch_keycenter=f4
sample=Violins2_fall_FF_F4.opus
</region>

<region>
hikey=f5
hivel=127
lokey=e5
lovel=0
offset=1192
pitch_keycenter=f5
sample=Violins2_fall_FF_F5.opus
</region>

<region>
hikey=f6
hivel=127
lokey=e6
lovel=0
offset=3313
pitch_keycenter=f6
sample=Violins2_fall_FF_F6.opus
</region>

<region>
hivel=127
key=g3
lovel=0
offset=481
sample=Violins2_fall_FF_G3.opus
</region>

<region>
hikey=g4
hivel=127
lokey=f#4
lovel=0
offset=1358
pitch_keycenter=g4
sample=Violins2_fall_FF_G4.opus
</region>

<region>
hikey=g5
hivel=127
lokey=f#5
lovel=0
offset=1277
pitch_keycenter=g5
sample=Violins2_fall_FF_G5.opus
</region>

<region>
hikey=g6
hivel=127
lokey=f#6
lovel=0
offset=1969
pitch_keycenter=g6
sample=Violins2_fall_FF_G6.opus
</region>
</group>